<?xml version="1.0" encoding="utf-8"?>
<!-- Generator: Adobe Illustrator 24.0.1, SVG Export Plug-In . SVG Version: 6.00 Build 0)  -->
<svg version="1.1" id="Layer_1" xmlns="http://www.w3.org/2000/svg" xmlns:xlink="http://www.w3.org/1999/xlink" x="0px" y="0px"
	 viewBox="0 0 26.5 27.7" style="enable-background:new 0 0 26.5 27.7;" xml:space="preserve">
<style type="text/css">
	.st0{fill:#5E22F0;}
	.st1{fill:#EF5777;}
</style>
<path class="st0" d="M17.2,22.3l-0.1,0.6c-0.5,2.6-2.8,4.5-5.5,4.5c-1.4,0-2.6-0.5-3.6-1.3c-1-0.8-1.7-2-1.9-3.2l-0.1-0.6H17.2z"/>
<path class="st1" d="M26.2,5.8c0,3.1-2.5,5.6-5.6,5.6c-3.1,0-5.6-2.5-5.6-5.6c0-3.1,2.5-5.6,5.6-5.6S26.2,2.8,26.2,5.8z"/>
<path class="st0" d="M23.1,21.4H0.3L2.1,16c0,0,0-0.1,0-0.1v-6c0-5.3,4.3-9.6,9.6-9.6c1.3,0,2.6,0.3,3.8,0.8l0.6,0.3l-0.4,0.5
	c-0.9,1.1-1.4,2.5-1.4,4c0,3.5,2.9,6.4,6.4,6.4h0.6v3.6c0,0,0,0.1,0,0.1L23.1,21.4z"/>
</svg>
